<svg width="1280" height="720" xmlns="http://www.w3.org/2000/svg" xmlns:xlink="http://www.w3.org/1999/xlink" overflow="hidden"><defs><clipPath id="clip0"><rect x="0" y="0" width="1280" height="720"/></clipPath><clipPath id="clip1"><rect x="923" y="134" width="102" height="157"/></clipPath><clipPath id="clip2"><rect x="1024" y="134" width="127" height="157"/></clipPath><clipPath id="clip3"><rect x="923" y="171" width="102" height="158"/></clipPath><clipPath id="clip4"><rect x="1024" y="171" width="127" height="158"/></clipPath><clipPath id="clip5"><rect x="923" y="208" width="102" height="158"/></clipPath><clipPath id="clip6"><rect x="1024" y="208" width="127" height="158"/></clipPath><clipPath id="clip7"><rect x="923" y="246" width="102" height="158"/></clipPath><clipPath id="clip8"><rect x="1024" y="246" width="127" height="158"/></clipPath><clipPath id="clip9"><rect x="923" y="283" width="102" height="158"/></clipPath><clipPath id="clip10"><rect x="1024" y="283" width="127" height="158"/></clipPath><clipPath id="clip11"><rect x="923" y="321" width="102" height="158"/></clipPath><clipPath id="clip12"><rect x="1024" y="321" width="127" height="158"/></clipPath><clipPath id="clip13"><rect x="758" y="358" width="166" height="158"/></clipPath><clipPath id="clip14"><rect x="923" y="358" width="102" height="158"/></clipPath><clipPath id="clip15"><rect x="1024" y="358" width="127" height="158"/></clipPath><clipPath id="clip16"><rect x="923" y="396" width="102" height="157"/></clipPath><clipPath id="clip17"><rect x="923" y="396" width="102" height="157"/></clipPath><clipPath id="clip18"><rect x="1024" y="396" width="127" height="157"/></clipPath><clipPath id="clip19"><rect x="923" y="433" width="102" height="158"/></clipPath><clipPath id="clip20"><rect x="923" y="433" width="102" height="158"/></clipPath><clipPath id="clip21"><rect x="1024" y="433" width="127" height="158"/></clipPath><clipPath id="clip22"><rect x="67" y="123" width="605" height="492"/></clipPath><clipPath id="clip23"><rect x="67" y="123" width="605" height="492"/></clipPath><clipPath id="clip24"><rect x="67" y="123" width="605" height="492"/></clipPath><clipPath id="clip25"><rect x="142" y="138" width="505" height="376"/></clipPath><clipPath id="clip26"><rect x="142" y="138" width="505" height="376"/></clipPath><clipPath id="clip27"><rect x="67" y="123" width="605" height="492"/></clipPath><clipPath id="clip28"><rect x="67" y="123" width="605" height="492"/></clipPath><clipPath id="clip29"><rect x="67" y="123" width="605" height="492"/></clipPath><clipPath id="clip30"><rect x="67" y="123" width="605" height="492"/></clipPath><clipPath id="clip31"><rect x="67" y="123" width="605" height="492"/></clipPath><clipPath id="clip32"><rect x="67" y="123" width="605" height="492"/></clipPath><clipPath id="clip33"><rect x="67" y="123" width="605" height="492"/></clipPath><clipPath id="clip34"><rect x="67" y="123" width="605" height="492"/></clipPath><clipPath id="clip35"><rect x="67" y="123" width="605" height="492"/></clipPath><clipPath id="clip36"><rect x="67" y="123" width="605" height="492"/></clipPath><clipPath id="clip37"><rect x="67" y="123" width="605" height="492"/></clipPath><clipPath id="clip38"><rect x="67" y="123" width="605" height="492"/></clipPath><clipPath id="clip39"><rect x="67" y="123" width="605" height="492"/></clipPath><clipPath id="clip40"><rect x="67" y="123" width="605" height="492"/></clipPath><clipPath id="clip41"><rect x="67" y="123" width="605" height="492"/></clipPath><clipPath id="clip42"><rect x="67" y="123" width="605" height="492"/></clipPath><clipPath id="clip43"><rect x="67" y="123" width="605" height="492"/></clipPath><clipPath id="clip44"><rect x="67" y="123" width="605" height="492"/></clipPath><clipPath id="clip45"><rect x="67" y="123" width="605" height="492"/></clipPath><clipPath id="clip46"><rect x="67" y="123" width="605" height="492"/></clipPath><clipPath id="clip47"><rect x="67" y="123" width="605" height="492"/></clipPath><clipPath id="clip48"><rect x="67" y="123" width="605" height="492"/></clipPath></defs><g clip-path="url(#clip0)"><rect x="0" y="0" width="1280" height="720" fill="#FFFFFF"/><path d="M758.006 155.745 923.89 155.745 923.89 193.191 758.006 193.191Z" fill="#ED7D31" fill-rule="evenodd"/><path d="M923.89 155.745 1024.29 155.745 1024.29 193.191 923.89 193.191Z" fill="#ED7D31" fill-rule="evenodd"/><path d="M1024.29 155.745 1150.24 155.745 1150.24 193.191 1024.29 193.191Z" fill="#ED7D31" fill-rule="evenodd"/><path d="M758.006 193.191 923.89 193.191 923.89 230.636 758.006 230.636Z" fill="#ED7D31" fill-rule="evenodd"/><path d="M923.89 193.191 1024.29 193.191 1024.29 230.636 923.89 230.636Z" fill="#F8D7CD" fill-rule="evenodd"/><path d="M1024.29 193.191 1150.24 193.191 1150.24 230.636 1024.29 230.636Z" fill="#F8D7CD" fill-rule="evenodd"/><path d="M758.006 230.636 923.89 230.636 923.89 268.082 758.006 268.082Z" fill="#ED7D31" fill-rule="evenodd"/><path d="M923.89 230.636 1024.29 230.636 1024.29 268.082 923.89 268.082Z" fill="#FCECE8" fill-rule="evenodd"/><path d="M1024.29 230.636 1150.24 230.636 1150.24 268.082 1024.29 268.082Z" fill="#FCECE8" fill-rule="evenodd"/><path d="M758.006 268.082 923.89 268.082 923.89 305.528 758.006 305.528Z" fill="#ED7D31" fill-rule="evenodd"/><path d="M923.89 268.082 1024.29 268.082 1024.29 305.528 923.89 305.528Z" fill="#F8D7CD" fill-rule="evenodd"/><path d="M1024.29 268.082 1150.24 268.082 1150.24 305.528 1024.29 305.528Z" fill="#F8D7CD" fill-rule="evenodd"/><path d="M758.006 305.528 923.89 305.528 923.89 342.974 758.006 342.974Z" fill="#ED7D31" fill-rule="evenodd"/><path d="M923.89 305.528 1024.29 305.528 1024.29 342.974 923.89 342.974Z" fill="#FCECE8" fill-rule="evenodd"/><path d="M1024.29 305.528 1150.24 305.528 1150.24 342.974 1024.29 342.974Z" fill="#FCECE8" fill-rule="evenodd"/><path d="M758.006 342.974 923.89 342.974 923.89 380.42 758.006 380.42Z" fill="#ED7D31" fill-rule="evenodd"/><path d="M923.89 342.974 1024.29 342.974 1024.29 380.42 923.89 380.42Z" fill="#F8D7CD" fill-rule="evenodd"/><path d="M1024.29 342.974 1150.24 342.974 1150.24 380.42 1024.29 380.42Z" fill="#F8D7CD" fill-rule="evenodd"/><path d="M758.006 380.42 923.89 380.42 923.89 417.865 758.006 417.865Z" fill="#ED7D31" fill-rule="evenodd"/><path d="M923.89 380.42 1024.29 380.42 1024.29 417.865 923.89 417.865Z" fill="#FCECE8" fill-rule="evenodd"/><path d="M1024.29 380.42 1150.24 380.42 1150.24 417.865 1024.29 417.865Z" fill="#FCECE8" fill-rule="evenodd"/><path d="M758.006 417.865 923.89 417.865 923.89 455.311 758.006 455.311Z" fill="#ED7D31" fill-rule="evenodd"/><path d="M923.89 417.865 1024.29 417.865 1024.29 455.311 923.89 455.311Z" fill="#F8D7CD" fill-rule="evenodd"/><path d="M1024.29 417.865 1150.24 417.865 1150.24 455.311 1024.29 455.311Z" fill="#F8D7CD" fill-rule="evenodd"/><path d="M758.006 455.311 923.89 455.311 923.89 492.757 758.006 492.757Z" fill="#ED7D31" fill-rule="evenodd"/><path d="M923.89 455.311 1024.29 455.311 1024.29 492.757 923.89 492.757Z" fill="#FCECE8" fill-rule="evenodd"/><path d="M1024.29 455.311 1150.24 455.311 1150.24 492.757 1024.29 492.757Z" fill="#FCECE8" fill-rule="evenodd"/><path d="M758.006 492.757 923.89 492.757 923.89 530.203 758.006 530.203Z" fill="#ED7D31" fill-rule="evenodd"/><path d="M923.89 492.757 1024.29 492.757 1024.29 530.203 923.89 530.203Z" fill="#F8D7CD" fill-rule="evenodd"/><path d="M1024.29 492.757 1150.24 492.757 1150.24 530.203 1024.29 530.203Z" fill="#F8D7CD" fill-rule="evenodd"/><path d="M923.89 155.078 923.89 530.869" stroke="#FFFFFF" stroke-width="1.33333" stroke-linejoin="round" stroke-miterlimit="10" fill="none" fill-rule="evenodd"/><path d="M1024.29 155.078 1024.29 530.869" stroke="#FFFFFF" stroke-width="1.33333" stroke-linejoin="round" stroke-miterlimit="10" fill="none" fill-rule="evenodd"/><path d="M757.339 193.191 1150.91 193.191" stroke="#FFFFFF" stroke-width="4" stroke-linejoin="round" stroke-miterlimit="10" fill="none" fill-rule="evenodd"/><path d="M757.339 230.636 1150.91 230.636" stroke="#FFFFFF" stroke-width="1.33333" stroke-linejoin="round" stroke-miterlimit="10" fill="none" fill-rule="evenodd"/><path d="M757.339 268.082 1150.91 268.082" stroke="#FFFFFF" stroke-width="1.33333" stroke-linejoin="round" stroke-miterlimit="10" fill="none" fill-rule="evenodd"/><path d="M757.339 305.528 1150.91 305.528" stroke="#FFFFFF" stroke-width="1.33333" stroke-linejoin="round" stroke-miterlimit="10" fill="none" fill-rule="evenodd"/><path d="M757.339 342.974 1150.91 342.974" stroke="#FFFFFF" stroke-width="1.33333" stroke-linejoin="round" stroke-miterlimit="10" fill="none" fill-rule="evenodd"/><path d="M757.339 380.42 1150.91 380.42" stroke="#FFFFFF" stroke-width="1.33333" stroke-linejoin="round" stroke-miterlimit="10" fill="none" fill-rule="evenodd"/><path d="M757.339 417.865 1150.91 417.865" stroke="#FFFFFF" stroke-width="1.33333" stroke-linejoin="round" stroke-miterlimit="10" fill="none" fill-rule="evenodd"/><path d="M757.339 455.311 1150.91 455.311" stroke="#FFFFFF" stroke-width="1.33333" stroke-linejoin="round" stroke-miterlimit="10" fill="none" fill-rule="evenodd"/><path d="M757.339 492.757 1150.91 492.757" stroke="#FFFFFF" stroke-width="1.33333" stroke-linejoin="round" stroke-miterlimit="10" fill="none" fill-rule="evenodd"/><path d="M758.006 155.078 758.006 530.869" stroke="#FFFFFF" stroke-width="1.33333" stroke-linejoin="round" stroke-miterlimit="10" fill="none" fill-rule="evenodd"/><path d="M1150.24 155.078 1150.24 530.869" stroke="#FFFFFF" stroke-width="1.33333" stroke-linejoin="round" stroke-miterlimit="10" fill="none" fill-rule="evenodd"/><path d="M757.339 155.745 1150.91 155.745" stroke="#FFFFFF" stroke-width="1.33333" stroke-linejoin="round" stroke-miterlimit="10" fill="none" fill-rule="evenodd"/><path d="M757.339 530.203 1150.91 530.203" stroke="#FFFFFF" stroke-width="1.33333" stroke-linejoin="round" stroke-miterlimit="10" fill="none" fill-rule="evenodd"/><text fill="#FFFFFF" font-family="Microsoft YaHei,Microsoft YaHei_MSFontService,sans-serif" font-weight="400" font-size="19" transform="translate(822.281 182)">项目<tspan font-size="19" x="133.143" y="0">现货</tspan><tspan font-size="19" x="236.984" y="0">对冲后</tspan><tspan font-size="19" x="-28" y="37">累计回报率</tspan></text><g clip-path="url(#clip1)"><text font-family="Microsoft YaHei,Microsoft YaHei_MSFontService,sans-serif" font-weight="400" font-size="19" transform="translate(958.057 219)">95.83%</text></g><g clip-path="url(#clip2)"><text font-family="Microsoft YaHei,Microsoft YaHei_MSFontService,sans-serif" font-weight="400" font-size="19" transform="translate(1072.96 219)">103.70%</text></g><text fill="#FFFFFF" font-family="Microsoft YaHei,Microsoft YaHei_MSFontService,sans-serif" font-weight="400" font-size="19" transform="translate(794.281 257)">年化回报率<tspan fill="#000000" font-size="19" x="166.775" y="0">-</tspan></text><g clip-path="url(#clip3)"><text font-family="Microsoft YaHei,Microsoft YaHei_MSFontService,sans-serif" font-weight="400" font-size="19" transform="translate(969.057 257)">6.45%</text></g><g clip-path="url(#clip4)"><text font-family="Microsoft YaHei,Microsoft YaHei_MSFontService,sans-serif" font-weight="400" font-size="19" transform="translate(1094.96 257)">5.85%</text></g><text fill="#FFFFFF" font-family="Microsoft YaHei,Microsoft YaHei_MSFontService,sans-serif" font-weight="400" font-size="19" transform="translate(794.281 294)">年化波动率</text><g clip-path="url(#clip5)"><text font-family="Microsoft YaHei,Microsoft YaHei_MSFontService,sans-serif" font-weight="400" font-size="19" transform="translate(958.057 294)">26.74%</text></g><g clip-path="url(#clip6)"><text font-family="Microsoft YaHei,Microsoft YaHei_MSFontService,sans-serif" font-weight="400" font-size="19" transform="translate(1083.96 294)">14.69%</text></g><text fill="#FFFFFF" font-family="Microsoft YaHei,Microsoft YaHei_MSFontService,sans-serif" font-weight="400" font-size="19" transform="translate(803.615 332)">最大回撤</text><g clip-path="url(#clip7)"><text font-family="Microsoft YaHei,Microsoft YaHei_MSFontService,sans-serif" font-weight="400" font-size="19" transform="translate(958.057 332)">13.50%</text></g><g clip-path="url(#clip8)"><text font-family="Microsoft YaHei,Microsoft YaHei_MSFontService,sans-serif" font-weight="400" font-size="19" transform="translate(1094.96 332)">3.26%</text></g><text fill="#FFFFFF" font-family="Microsoft YaHei,Microsoft YaHei_MSFontService,sans-serif" font-weight="400" font-size="19" transform="translate(803.615 369)">夏普比率<tspan fill="#000000" font-size="19" x="174.109" y="0">-</tspan></text><g clip-path="url(#clip9)"><text font-family="Microsoft YaHei,Microsoft YaHei_MSFontService,sans-serif" font-weight="400" font-size="19" transform="translate(985.723 369)">0.16</text></g><g clip-path="url(#clip10)"><text font-family="Microsoft YaHei,Microsoft YaHei_MSFontService,sans-serif" font-weight="400" font-size="19" transform="translate(1111.63 369)">0.25</text></g><text fill="#FFFFFF" font-family="Microsoft YaHei,Microsoft YaHei_MSFontService,sans-serif" font-weight="400" font-size="19" transform="translate(794.281 406)">收益回撤比<tspan fill="#000000" font-size="19" x="183.442" y="0">-</tspan></text><g clip-path="url(#clip11)"><text font-family="Microsoft YaHei,Microsoft YaHei_MSFontService,sans-serif" font-weight="400" font-size="19" transform="translate(985.723 406)">0.31</text></g><g clip-path="url(#clip12)"><text font-family="Microsoft YaHei,Microsoft YaHei_MSFontService,sans-serif" font-weight="400" font-size="19" transform="translate(1111.63 406)">1.13</text></g><g clip-path="url(#clip13)"><text fill="#FFFFFF" font-family="Microsoft YaHei,Microsoft YaHei_MSFontService,sans-serif" font-weight="400" font-size="19" transform="translate(766.281 444)">调整后收益回撤比</text></g><text font-family="Microsoft YaHei,Microsoft YaHei_MSFontService,sans-serif" font-weight="400" font-size="19" transform="translate(977.723 444)">-</text><g clip-path="url(#clip14)"><text font-family="Microsoft YaHei,Microsoft YaHei_MSFontService,sans-serif" font-weight="400" font-size="19" transform="translate(985.723 444)">0.25</text></g><g clip-path="url(#clip15)"><text font-family="Microsoft YaHei,Microsoft YaHei_MSFontService,sans-serif" font-weight="400" font-size="19" transform="translate(1111.63 444)">0.59</text></g><text fill="#FFFFFF" font-family="Microsoft YaHei,Microsoft YaHei_MSFontService,sans-serif" font-weight="400" font-size="19" transform="translate(803.615 481)">最大亏损</text><g clip-path="url(#clip16)"><text font-family="Microsoft YaHei,Microsoft YaHei_MSFontService,sans-serif" font-weight="400" font-size="19" transform="translate(929.223 481)">-</text></g><g clip-path="url(#clip17)"><text font-family="Microsoft YaHei,Microsoft YaHei_MSFontService,sans-serif" font-weight="400" font-size="19" transform="translate(937.223 481)">7,108,500</text></g><text font-family="Microsoft YaHei,Microsoft YaHei_MSFontService,sans-serif" font-weight="400" font-size="19" transform="translate(1055.13 481)">-</text><g clip-path="url(#clip18)"><text font-family="Microsoft YaHei,Microsoft YaHei_MSFontService,sans-serif" font-weight="400" font-size="19" transform="translate(1063.13 481)">1,345,500</text></g><text fill="#FFFFFF" font-family="Microsoft YaHei,Microsoft YaHei_MSFontService,sans-serif" font-weight="400" font-size="19" transform="translate(803.615 519)">累计收益</text><g clip-path="url(#clip19)"><text font-family="Microsoft YaHei,Microsoft YaHei_MSFontService,sans-serif" font-weight="400" font-size="19" transform="translate(929.223 519)">-</text></g><g clip-path="url(#clip20)"><text font-family="Microsoft YaHei,Microsoft YaHei_MSFontService,sans-serif" font-weight="400" font-size="19" transform="translate(937.223 519)">2,293,500</text></g><g clip-path="url(#clip21)"><text font-family="Microsoft YaHei,Microsoft YaHei_MSFontService,sans-serif" font-weight="400" font-size="19" transform="translate(1078.63 519)">250,500</text></g><rect x="67" y="124" width="605" height="492" fill="#FFFFFF"/><g clip-path="url(#clip22)"><path d="M142.5 471.5 646.5 471.5M142.5 430.5 646.5 430.5M142.5 388.5 646.5 388.5M142.5 346.5 646.5 346.5M142.5 305.5 646.5 305.5M142.5 263.5 646.5 263.5M142.5 221.5 646.5 221.5M142.5 180.5 646.5 180.5M142.5 138.5 646.5 138.5" stroke="#D9D9D9" stroke-linejoin="round" stroke-miterlimit="10" fill="none"/></g><g clip-path="url(#clip23)"><path d="M142.5 513.5 646.5 513.5" stroke="#D9D9D9" stroke-linejoin="round" stroke-miterlimit="10" fill="none" fill-rule="evenodd"/></g><g clip-path="url(#clip24)"><path d="M142.5 513.5 142.5 517.5M206.5 513.5 206.5 517.5M271.5 513.5 271.5 517.5M329.5 513.5 329.5 517.5M394.5 513.5 394.5 517.5M456.5 513.5 456.5 517.5M521.5 513.5 521.5 517.5M583.5 513.5 583.5 517.5" stroke="#D9D9D9" stroke-linejoin="round" stroke-miterlimit="10" fill="none"/></g><g clip-path="url(#clip25)"><path d="M144.5 175.5 150.5 176.5 152.5 180.5 154.5 184.5 156.5 178.5 159.5 175.5 165.5 179.5 167.5 187.5 169.5 164.5 171.5 174.5 173.5 198.5 179.5 208.5 181.5 194.5 184.5 190.5 186.5 211.5 188.5 217.5 194.5 216.5 196.5 215.5 198.5 211.5 200.5 203.5 202.5 215.5 211.5 207.5 213.5 218.5 215.5 215.5 217.5 191.5 223.5 192.5 225.5 203.5 227.5 219.5 229.5 227.5 231.5 228.5 238.5 220.5 240.5 215.5 242.5 210.5 244.5 219.5 246.5 231.5 252.5 233.5 254.5 238.5 256.5 242.5 258.5 220.5 261.5 220.5 281.5 219.5 283.5 218.5 286.5 223.5 288.5 238.5 290.5 227.5 296.5 265.5 298.5 286.5 300.5 265.5 302.5 276.5 304.5 291.5 311.5 300.5 313.5 323.5 315.5 312.5 317.5 338.5 319.5 321.5 325.5 314.5 327.5 309.5 329.5 348.5 331.5 344.5 333.5 348.5 340.5 388.5 342.5 419.5 344.5 476.5 346.5 412.5 348.5 418.5 354.5 402.5 356.5 379.5 358.5 333.5 361.5 355.5 363.5 357.5 369.5 356.5 371.5 363.5 373.5 357.5 375.5 365.5 377.5 388.5 383.5 380.5 385.5 360.5 388.5 351.5 390.5 350.5 392.5 357.5 402.5 354.5 404.5 350.5 406.5 353.5 413.5 378.5 415.5 389.5 417.5 395.5 419.5 410.5 421.5 413.5 427.5 422.5 429.5 417.5 431.5 398.5 433.5 398.5 435.5 421.5 442.5 414.5 444.5 390.5 446.5 392.5 448.5 384.5 450.5 423.5 463.5 412.5 465.5 407.5 471.5 416.5 473.5 408.5 475.5 379.5 477.5 379.5 479.5 385.5 485.5 364.5 488.5 374.5 490.5 357.5 492.5 361.5 494.5 361.5 500.5 378.5 502.5 375.5 504.5 384.5 506.5 390.5 508.5 390.5 515.5 388.5 517.5 375.5 519.5 360.5 521.5 371.5 529.5 375.5 531.5 364.5 533.5 367.5 535.5 379.5 537.5 374.5 544.5 398.5 546.5 381.5 548.5 353.5 550.5 353.5 552.5 369.5 558.5 369.5 560.5 365.5 562.5 359.5 565.5 363.5 567.5 354.5 573.5 348.5 575.5 349.5 577.5 347.5 579.5 341.5 581.5 328.5 587.5 326.5 590.5 329.5 592.5 296.5 594.5 244.5 596.5 243.5 602.5 243.5 604.5 243.5 606.5 235.5 608.5 232.5 610.5 222.5 617.5 221.5 619.5 218.5 621.5 217.5 623.5 213.5 625.5 219.5 631.5 226.5 633.5 241.5 635.5 238.5 637.5 252.5 640.5 273.5 646.5 275.5" stroke="#4472C4" stroke-width="3" stroke-linecap="round" stroke-linejoin="round" stroke-miterlimit="10" fill="none"/></g><g clip-path="url(#clip26)"><path d="M144.5 182.5 150.5 167.5 152.5 177.5 154.5 175.5 156.5 178.5 159.5 184.5 165.5 173.5 167.5 178.5 169.5 181.5 171.5 169.5 173.5 163.5 179.5 177.5 181.5 179.5 184.5 180.5 186.5 177.5 188.5 178.5 194.5 178.5 196.5 171.5 198.5 177.5 200.5 181.5 202.5 168.5 211.5 179.5 213.5 182.5 215.5 197.5 217.5 184.5 223.5 183.5 225.5 173.5 227.5 176.5 229.5 179.5 231.5 182.5 238.5 187.5 240.5 187.5 242.5 182.5 244.5 160.5 246.5 172.5 252.5 182.5 254.5 187.5 256.5 189.5 258.5 209.5 261.5 215.5 281.5 203.5 283.5 188.5 286.5 183.5 288.5 190.5 290.5 192.5 296.5 194.5 298.5 189.5 300.5 200.5 302.5 191.5 304.5 186.5 311.5 200.5 313.5 194.5 315.5 203.5 317.5 177.5 319.5 192.5 325.5 194.5 327.5 191.5 329.5 195.5 331.5 197.5 333.5 194.5 340.5 186.5 342.5 188.5 344.5 183.5 346.5 200.5 348.5 202.5 354.5 194.5 356.5 226.5 358.5 196.5 361.5 193.5 363.5 194.5 369.5 199.5 371.5 190.5 373.5 200.5 375.5 182.5 377.5 193.5 383.5 209.5 385.5 203.5 388.5 199.5 390.5 201.5 392.5 197.5 402.5 205.5 404.5 197.5 406.5 195.5 413.5 198.5 415.5 194.5 417.5 189.5 419.5 201.5 421.5 192.5 427.5 190.5 429.5 202.5 431.5 214.5 433.5 185.5 435.5 197.5 442.5 203.5 444.5 199.5 446.5 202.5 448.5 198.5 450.5 204.5 463.5 200.5 465.5 201.5 471.5 200.5 473.5 210.5 475.5 195.5 477.5 169.5 479.5 204.5 485.5 208.5 488.5 205.5 490.5 216.5 492.5 209.5 494.5 196.5 500.5 213.5 502.5 202.5 504.5 208.5 506.5 214.5 508.5 201.5 515.5 220.5 517.5 212.5 519.5 215.5 521.5 209.5 529.5 219.5 531.5 220.5 533.5 211.5 535.5 218.5 537.5 222.5 544.5 195.5 546.5 233.5 548.5 220.5 550.5 211.5 552.5 209.5 558.5 220.5 560.5 223.5 562.5 231.5 565.5 216.5 567.5 227.5 573.5 205.5 575.5 219.5 577.5 221.5 579.5 219.5 581.5 231.5 587.5 214.5 590.5 219.5 592.5 236.5 594.5 184.5 596.5 182.5 602.5 183.5 604.5 183.5 606.5 191.5 608.5 184.5 610.5 191.5 617.5 181.5 619.5 185.5 621.5 185.5 623.5 201.5 625.5 171.5 631.5 171.5 633.5 186.5 635.5 187.5 637.5 178.5 640.5 166.5 646.5 169.5" stroke="#ED7D31" stroke-width="3" stroke-linecap="round" stroke-linejoin="round" stroke-miterlimit="10" fill="none"/></g><g clip-path="url(#clip27)"><text fill="#595959" font-family="Microsoft YaHei,Microsoft YaHei_MSFontService,sans-serif" font-weight="400" font-size="12" transform="translate(75.7813 518)">-8000000</text></g><g clip-path="url(#clip28)"><text fill="#595959" font-family="Microsoft YaHei,Microsoft YaHei_MSFontService,sans-serif" font-weight="400" font-size="12" transform="translate(75.7813 476)">-7000000</text></g><g clip-path="url(#clip29)"><text fill="#595959" font-family="Microsoft YaHei,Microsoft YaHei_MSFontService,sans-serif" font-weight="400" font-size="12" transform="translate(75.7813 434)">-6000000</text></g><g clip-path="url(#clip30)"><text fill="#595959" font-family="Microsoft YaHei,Microsoft YaHei_MSFontService,sans-serif" font-weight="400" font-size="12" transform="translate(75.7813 393)">-5000000</text></g><g clip-path="url(#clip31)"><text fill="#595959" font-family="Microsoft YaHei,Microsoft YaHei_MSFontService,sans-serif" font-weight="400" font-size="12" transform="translate(75.7813 351)">-4000000</text></g><g clip-path="url(#clip32)"><text fill="#595959" font-family="Microsoft YaHei,Microsoft YaHei_MSFontService,sans-serif" font-weight="400" font-size="12" transform="translate(75.7813 309)">-3000000</text></g><g clip-path="url(#clip33)"><text fill="#595959" font-family="Microsoft YaHei,Microsoft YaHei_MSFontService,sans-serif" font-weight="400" font-size="12" transform="translate(75.7813 268)">-2000000</text></g><g clip-path="url(#clip34)"><text fill="#595959" font-family="Microsoft YaHei,Microsoft YaHei_MSFontService,sans-serif" font-weight="400" font-size="12" transform="translate(75.7813 226)">-1000000</text></g><g clip-path="url(#clip35)"><text fill="#595959" font-family="Microsoft YaHei,Microsoft YaHei_MSFontService,sans-serif" font-weight="400" font-size="12" transform="translate(123.215 184)">0</text></g><g clip-path="url(#clip36)"><text fill="#595959" font-family="Microsoft YaHei,Microsoft YaHei_MSFontService,sans-serif" font-weight="400" font-size="12" transform="translate(80.9747 142)">1000000</text></g><g clip-path="url(#clip37)"><text fill="#595959" font-family="Microsoft YaHei,Microsoft YaHei_MSFontService,sans-serif" font-weight="400" font-size="12" transform="matrix(0.707107 -0.707107 0.707107 0.707107 103.904 573)">2021/12/2</text></g><g clip-path="url(#clip38)"><text fill="#595959" font-family="Microsoft YaHei,Microsoft YaHei_MSFontService,sans-serif" font-weight="400" font-size="12" transform="matrix(0.707107 -0.707107 0.707107 0.707107 173.423 568)">2022/1/2</text></g><g clip-path="url(#clip39)"><text fill="#595959" font-family="Microsoft YaHei,Microsoft YaHei_MSFontService,sans-serif" font-weight="400" font-size="12" transform="matrix(0.707107 -0.707107 0.707107 0.707107 237.965 568)">2022/2/2</text></g><g clip-path="url(#clip40)"><text fill="#595959" font-family="Microsoft YaHei,Microsoft YaHei_MSFontService,sans-serif" font-weight="400" font-size="12" transform="matrix(0.707107 -0.707107 0.707107 0.707107 296.26 568)">2022/3/2</text></g><g clip-path="url(#clip41)"><text fill="#595959" font-family="Microsoft YaHei,Microsoft YaHei_MSFontService,sans-serif" font-weight="400" font-size="12" transform="matrix(0.707107 -0.707107 0.707107 0.707107 360.801 568)">2022/4/2</text></g><g clip-path="url(#clip42)"><text fill="#595959" font-family="Microsoft YaHei,Microsoft YaHei_MSFontService,sans-serif" font-weight="400" font-size="12" transform="matrix(0.707107 -0.707107 0.707107 0.707107 423.261 568)">2022/5/2</text></g><g clip-path="url(#clip43)"><text fill="#595959" font-family="Microsoft YaHei,Microsoft YaHei_MSFontService,sans-serif" font-weight="400" font-size="12" transform="matrix(0.707107 -0.707107 0.707107 0.707107 487.802 568)">2022/6/2</text></g><g clip-path="url(#clip44)"><text fill="#595959" font-family="Microsoft YaHei,Microsoft YaHei_MSFontService,sans-serif" font-weight="400" font-size="12" transform="matrix(0.707107 -0.707107 0.707107 0.707107 550.262 568)">2022/7/2</text></g><g clip-path="url(#clip45)"><path d="M282.5 595.5 307.5 595.5" stroke="#4472C4" stroke-width="3" stroke-linecap="round" stroke-linejoin="round" stroke-miterlimit="10" fill="none" fill-rule="evenodd"/></g><g clip-path="url(#clip46)"><text fill="#595959" font-family="Microsoft YaHei,Microsoft YaHei_MSFontService,sans-serif" font-weight="400" font-size="12" transform="translate(310.381 600)">现货盈亏</text></g><g clip-path="url(#clip47)"><path d="M373.5 595.5 399.5 595.5" stroke="#ED7D31" stroke-width="3" stroke-linecap="round" stroke-linejoin="round" stroke-miterlimit="10" fill="none" fill-rule="evenodd"/></g><g clip-path="url(#clip48)"><text fill="#595959" font-family="Microsoft YaHei,Microsoft YaHei_MSFontService,sans-serif" font-weight="400" font-size="12" transform="translate(401.848 600)">对冲后盈亏</text></g></g></svg>